<svg xmlns="http://www.w3.org/2000/svg" width="150" height="35" viewBox="0 0 150 35"><path fill="#fff" d="M79.736 24.348h-3.58l-3.363-10.695c-.34-1.087-.618-2.01-.833-2.769a66.252 66.252 0 01-.687-2.616c-.217.784-.509 1.787-.87 3.016a72.49 72.49 0 01-.724 2.369l-3.365 10.695h-3.58L55.03 0h5.389l3.004 9.783c.191.609.409 1.365.65 2.277.241.912.435 1.77.58 2.58a82.082 82.082 0 011.3-4.857L68.993 0h4.847l3.002 9.747c.387 1.29.785 2.919 1.194 4.893a54.827 54.827 0 011.304-4.857L82.414 0h5.028zM94.995 24.35c-2.544 0-4.691-.853-6.442-2.562-1.749-1.709-2.623-3.893-2.623-6.548 0-2.658.869-4.848 2.607-6.568 1.735-1.72 3.89-2.582 6.458-2.582 2.542 0 4.684.863 6.421 2.582 1.736 1.72 2.604 3.91 2.604 6.568 0 2.632-.868 4.809-2.604 6.528-1.737 1.723-3.879 2.583-6.42 2.583m0-13.552c-1.055 0-1.959.417-2.718 1.252-.758.835-1.137 1.898-1.137 3.189 0 1.266.373 2.31 1.119 3.13.747.824 1.66 1.236 2.735 1.236 1.052 0 1.959-.42 2.715-1.255.758-.835 1.14-1.87 1.14-3.111 0-1.266-.376-2.321-1.119-3.17-.75-.848-1.66-1.271-2.736-1.271M117.559 11.67c-1.508 0-2.766.487-3.779 1.461-1.013.974-1.518 2.45-1.518 4.423v6.796h-5.222V7.15h4.797l.175 2.697c.494-1.063 1.2-1.828 2.12-2.296.916-.467 2.07-.701 3.46-.701zM130.144 24.348l-4.965-6.986v6.986h-5.329V0h5.33v14.12l5.037-7.062h5.701l-5.736 8.281 6.25 9.009zM143.26 24.35c-1.157 0-2.199-.133-3.127-.397-.931-.267-1.72-.615-2.373-1.044l-.57-4.858c.706.62 1.587 1.124 2.637 1.508a9.065 9.065 0 003.163.579c.558 0 1-.114 1.328-.343.328-.225.495-.528.495-.907 0-.657-.737-1.244-2.201-1.761-1.467-.515-2.643-1.255-3.527-2.215-.883-.958-1.325-2.096-1.325-3.407 0-1.589.578-2.888 1.742-3.901 1.162-1.008 2.693-1.514 4.588-1.514 1.037 0 1.951.111 2.749.323.795.217 1.448.476 1.95.779l-.413 4.213c-.456-.303-1.037-.573-1.746-.815a6.83 6.83 0 00-2.198-.362c-1.061 0-1.592.406-1.592 1.216 0 .607 1.192 1.297 3.582 2.068 2.387.773 3.582 2.552 3.582 5.334 0 1.595-.57 2.911-1.712 3.946-1.148 1.038-2.82 1.559-5.033 1.559"/><path fill="#a2acb0" d="M3.66 14.348c0-2.316.784-4.19 2.352-5.616 1.569-1.428 3.463-2.142 5.69-2.142.815 0 1.53.107 2.152.318.623.21 1.329.565 2.118 1.062.455-.536.923-.958 1.4-1.264.623-.41 1.207-.616 1.76-.616.503 0 .958.149 1.363.444.408.292.61.708.61 1.245 0 .461-.126.838-.376 1.13-.252.295-.592.442-1.023.442-.382 0-.766-.155-1.15-.459-.382-.309-.645-.46-.787-.46-.29 0-.6.126-.934.382.31.59.537 1.127.681 1.61a5.79 5.79 0 01.216 1.65c0 2.148-.647 3.9-1.936 5.254-1.295 1.352-2.958 2.148-4.992 2.375H8.22c-1.076 0-1.865.115-2.37.346-.5.23-.753.587-.753 1.074 0 .767 1.01 1.304 3.034 1.61 2.936.459 4.815.869 5.633 1.226 2.047.922 3.07 2.468 3.07 4.64 0 2.174-.923 3.838-2.775 4.987-1.516.945-3.365 1.417-5.552 1.417-1.947 0-3.713-.332-5.3-.995C1.069 33.111 0 31.782 0 30.019c0-.767.21-1.42.629-1.956.418-.537.997-.804 1.74-.804.6 0 1.196.242 1.796.725v.152c-.118.202-.315.419-.594.646-.392.332-.59.788-.59 1.372 0 1.22.637 2.134 1.913 2.746.99.481 2.147.723 3.468.723 1.232 0 2.303-.217 3.218-.65 1.205-.562 1.81-1.416 1.81-2.563 0-1.403-.989-2.358-2.962-2.867-1.855-.382-3.71-.753-5.565-1.11-1.998-.639-2.995-1.797-2.995-3.483 0-1.172.43-2.14 1.29-2.904.597-.537 1.52-1.034 2.765-1.492-.79-.664-1.342-1.248-1.65-1.757-.41-.689-.613-1.504-.613-2.449m5.96 3.975c1.195 0 2.176-1.032 2.942-3.095.6-1.627.9-3.221.9-4.773 0-.714-.108-1.273-.324-1.68-.287-.535-.729-.804-1.329-.804-1.147 0-2.131 1.042-2.942 3.134-.67 1.731-1.007 3.322-1.007 4.773 0 .663.144 1.236.431 1.72.287.483.729.725 1.329.725M29.618 6.85c2.002 0 3.598.67 4.786 2.008 1.186 1.338 1.779 3.049 1.779 5.133 0 2.91-.968 5.49-2.91 7.742-1.942 2.252-4.288 3.378-7.03 3.378-2.006 0-3.61-.655-4.824-1.971-1.213-1.31-1.819-3.01-1.819-5.094 0-3.011.96-5.629 2.877-7.858 1.917-2.223 4.297-3.338 7.141-3.338m-3.524 16.868c1.634 0 3.04-1.732 4.229-5.198.965-2.816 1.446-5.312 1.446-7.484 0-.828-.136-1.46-.408-1.9-.345-.596-.892-.894-1.631-.894-1.583 0-2.97 1.696-4.155 5.08-.966 2.768-1.447 5.212-1.447 7.33 0 .829.141 1.546.427 2.153.283.61.8.913 1.539.913M42.618 11.159c-.361 0-.983-.114-1.872-.341-.5-.125-.886-.189-1.15-.189-.334 0-.598.183-.79.549-.196.366-.372.585-.539.662a.776.776 0 01-.469-.53 2.541 2.541 0 01-.108-.68c0-.96.243-1.782.72-2.475.482-.693 1.17-1.039 2.062-1.039.77 0 1.521.332 2.254 1 .733.668 1.258 1.003 1.572 1.003.527 0 .96-.38 1.297-1.136.338-.753.675-1.133 1.013-1.133.263 0 .485.07.667.208.18.138.269.346.269.623a115.957 115.957 0 00-3.08 6.085c-.968 2.067-1.453 3.782-1.453 5.14 0 .933.208 1.665.614 2.194.407.53 1.042.792 1.904.792.385 0 .786-.1 1.208-.302.42-.202.915-.604 1.492-1.208 1.129-1.186 1.883-2.507 2.265-3.97.29-1.084.433-2.558.433-4.422V9.344c0-.53.129-1 .393-1.419.258-.413.627-.62 1.102-.62.617 0 1.078.243 1.387.736.308.49.464 1.09.464 1.793 0 3.1-1.142 6.237-3.417 9.412-2.424 3.403-5.06 5.104-7.916 5.104-1.173 0-2.18-.366-3.02-1.097-.84-.729-1.26-1.713-1.26-2.948 0-1.762.97-3.88 2.914-6.35 1.318-1.51 2.23-2.57 2.734-3.173a9.926 9.926 0 01-.864.244c-.36.088-.636.133-.826.133"/></svg>